<svg width="36" height="38" viewBox="0 0 36 38" fill="none" xmlns="http://www.w3.org/2000/svg">
<path fill-rule="evenodd" clip-rule="evenodd" d="M30.4801 0.575702C29.4165 -0.0216285 28.2835 -0.0794347 27.0869 0.0689345C25.9501 0.211523 24.5646 0.569921 22.9017 1.00347L19.0114 2.01315C17.3485 2.44669 15.965 2.80509 14.9071 3.23478C13.7915 3.68567 12.8281 4.29071 12.2037 5.34086C11.5756 6.39678 11.5139 7.52593 11.67 8.70517C11.8184 9.81698 12.1903 11.1658 12.6334 12.7728L13.6797 16.5572C14.1229 18.1661 14.4967 19.513 14.9418 20.5458C15.4139 21.6441 16.044 22.5786 17.1153 23.1798C18.179 23.7752 19.312 23.835 20.5105 23.6847C21.6473 23.544 23.0328 23.1837 24.6957 22.7501L28.586 21.7405C30.2489 21.3088 31.6324 20.9485 32.6902 20.5188C33.8059 20.0679 34.7693 19.4629 35.3936 18.4128C36.0218 17.3568 36.0835 16.2277 35.9274 15.0504C35.779 13.9386 35.4071 12.5878 34.964 10.9808L33.9177 7.19643C33.4745 5.58942 33.1007 4.24061 32.6556 3.20781C32.1835 2.10949 31.5495 1.17496 30.4801 0.575702ZM23.5338 3.82441C25.3161 3.36196 26.5165 3.05366 27.4453 2.93805C28.3336 2.82629 28.7594 2.92456 29.0697 3.09798C29.3722 3.26754 29.6631 3.56235 30.0003 4.35044C30.3568 5.179 30.6805 6.33319 31.1584 8.06353L32.1488 11.6533C32.6286 13.3836 32.9446 14.5397 33.0621 15.43C33.1739 16.2759 33.0737 16.6593 32.908 16.9348C32.7403 17.2181 32.4359 17.5052 31.6073 17.8405C30.7441 18.1892 29.5456 18.5052 27.7632 18.9677L24.0636 19.9292C22.2813 20.3917 21.0808 20.7 20.1521 20.8156C19.2619 20.9292 18.838 20.831 18.5277 20.6576C18.2252 20.488 17.9343 20.1913 17.5971 19.4051C17.2406 18.5765 16.9169 17.4204 16.439 15.6901L15.4486 12.1022C14.9688 10.3681 14.6528 9.21387 14.5353 8.32558C14.4235 7.47776 14.5237 7.09624 14.6894 6.81877C14.857 6.53552 15.1615 6.24841 15.99 5.91314C16.8533 5.56437 18.0518 5.25029 19.8342 4.78592L23.5338 3.82441Z" fill="white"/>
<path fill-rule="evenodd" clip-rule="evenodd" d="M1.78927 4.76862C1.42421 4.67912 1.03865 4.73537 0.714384 4.92544C0.390116 5.1155 0.152655 5.42442 0.0523804 5.78667C-0.0478942 6.14891 -0.00309249 6.53596 0.177281 6.86572C0.357654 7.19548 0.659406 7.44199 1.01852 7.55295L4.29998 8.46436C5.12083 8.69173 5.73165 9.31219 5.93975 10.0656L9.701 23.6751C9.55547 23.7039 9.41088 23.7373 9.26746 23.7753C5.45803 24.7638 3.13037 28.5963 4.17473 32.3826C5.21525 36.1497 9.17304 38.3212 12.967 37.3347C16.289 36.4734 18.4837 33.4501 18.2987 30.1821L34.523 25.9661C34.7067 25.9184 34.8792 25.835 35.0307 25.7207C35.1821 25.6063 35.3096 25.4632 35.4058 25.2996C35.5019 25.1359 35.5649 24.955 35.5912 24.767C35.6174 24.579 35.6064 24.3877 35.5587 24.204C35.511 24.0203 35.4275 23.8478 35.3132 23.6963C35.1988 23.5449 35.0557 23.4174 34.8921 23.3212C34.7285 23.225 34.5475 23.162 34.3595 23.1358C34.1715 23.1096 33.9802 23.1206 33.7965 23.1683L17.5376 27.3939C17.0512 26.4644 16.3666 25.6531 15.5322 25.0171C14.6979 24.3812 13.734 23.9362 12.7088 23.7136L8.726 9.29484C8.48153 8.42746 8.0165 7.63822 7.37624 7.00403C6.73598 6.36985 5.94233 5.91237 5.07266 5.67618L1.79119 4.76669L1.78927 4.76862ZM9.99581 26.5712C12.3312 25.9661 14.6743 27.3207 15.2754 29.4981C15.8728 31.6562 14.5625 33.9357 12.2425 34.5388C9.90718 35.1458 7.5641 33.7892 6.96292 31.6119C6.36559 29.4538 7.67586 27.1743 9.99581 26.5712Z" fill="white"/>
</svg>
