<svg width="36" height="36" viewBox="0 0 36 36" fill="none" xmlns="http://www.w3.org/2000/svg">
<path d="M26.5263 17.0526C29.0389 17.0526 31.4486 18.0507 33.2252 19.8274C35.0019 21.6041 36 24.0137 36 26.5263C36 29.0389 35.0019 31.4486 33.2252 33.2252C31.4486 35.0019 29.0389 36 26.5263 36C24.0137 36 21.6041 35.0019 19.8274 33.2252C18.0507 31.4486 17.0526 29.0389 17.0526 26.5263C17.0526 24.0137 18.0507 21.6041 19.8274 19.8274C21.6041 18.0507 24.0137 17.0526 26.5263 17.0526ZM24.6316 0C25.1341 0 25.616 0.199623 25.9714 0.554955C26.3267 0.910288 26.5263 1.39222 26.5263 1.89474V3.78947H30.3158C31.3208 3.78947 32.2847 4.18872 32.9954 4.89938C33.706 5.61005 34.1053 6.57392 34.1053 7.57895V13.2632H30.3158V7.57895H3.78947V30.3158H13.2632V34.1053H3.78947C2.78444 34.1053 1.82058 33.706 1.10991 32.9954C0.399247 32.2847 0 31.3208 0 30.3158V7.57895C0 6.57392 0.399247 5.61005 1.10991 4.89938C1.82058 4.18872 2.78444 3.78947 3.78947 3.78947H7.57895V1.89474C7.57895 1.39222 7.77857 0.910288 8.1339 0.554955C8.48924 0.199623 8.97117 0 9.47368 0C9.9762 0 10.4581 0.199623 10.8135 0.554955C11.1688 0.910288 11.3684 1.39222 11.3684 1.89474V3.78947H22.7368V1.89474C22.7368 1.39222 22.9365 0.910288 23.2918 0.554955C23.6471 0.199623 24.1291 0 24.6316 0ZM26.5263 20.8421C25.0188 20.8421 23.573 21.441 22.507 22.507C21.441 23.573 20.8421 25.0188 20.8421 26.5263C20.8421 28.0339 21.441 29.4797 22.507 30.5457C23.573 31.6117 25.0188 32.2105 26.5263 32.2105C28.0339 32.2105 29.4797 31.6117 30.5457 30.5457C31.6117 29.4797 32.2105 28.0339 32.2105 26.5263C32.2105 25.0188 31.6117 23.573 30.5457 22.507C29.4797 21.441 28.0339 20.8421 26.5263 20.8421ZM26.5263 21.7895C27.0288 21.7895 27.5108 21.9891 27.8661 22.3444C28.2214 22.6998 28.4211 23.1817 28.4211 23.6842V24.6316C28.9236 24.6316 29.4055 24.8312 29.7608 25.1865C30.1162 25.5419 30.3158 26.0238 30.3158 26.5263C30.3158 27.0288 30.1162 27.5108 29.7608 27.8661C29.4055 28.2214 28.9236 28.4211 28.4211 28.4211H26.5263C26.0238 28.4211 25.5419 28.2214 25.1865 27.8661C24.8312 27.5108 24.6316 27.0288 24.6316 26.5263V23.6842C24.6316 23.1817 24.8312 22.6998 25.1865 22.3444C25.5419 21.9891 26.0238 21.7895 26.5263 21.7895ZM10.4211 20.8421C10.904 20.8426 11.3685 21.0276 11.7196 21.3591C12.0708 21.6906 12.2821 22.1437 12.3104 22.6258C12.3387 23.1079 12.1819 23.5826 11.8719 23.9529C11.562 24.3233 11.1223 24.5613 10.6427 24.6183L10.4211 24.6316H9.47368C8.99076 24.631 8.52625 24.4461 8.17509 24.1146C7.82393 23.7831 7.61261 23.33 7.58431 22.8479C7.556 22.3658 7.71286 21.8911 8.02282 21.5207C8.33278 21.1504 8.77245 20.9124 9.252 20.8554L9.47368 20.8421H10.4211ZM15.1579 13.2632C15.6604 13.2632 16.1423 13.4628 16.4977 13.8181C16.853 14.1734 17.0526 14.6554 17.0526 15.1579C17.0526 15.6604 16.853 16.1423 16.4977 16.4977C16.1423 16.853 15.6604 17.0526 15.1579 17.0526H9.47368C8.97117 17.0526 8.48924 16.853 8.1339 16.4977C7.77857 16.1423 7.57895 15.6604 7.57895 15.1579C7.57895 14.6554 7.77857 14.1734 8.1339 13.8181C8.48924 13.4628 8.97117 13.2632 9.47368 13.2632H15.1579Z" fill="white"/>
</svg>
